<mxfile host="app.diagrams.net" modified="2024-05-13T20:38:01.913Z" agent="Mozilla/5.0 (Windows NT 10.0; Win64; x64) AppleWebKit/537.36 (KHTML, like Gecko) Chrome/122.0.0.0 Safari/537.36" etag="BsDu6Z_d2V9BUoAbbjLp" version="24.4.0" type="device">
  <diagram name="Page-1" id="9f46799a-70d6-7492-0946-bef42562c5a5">
    <mxGraphModel dx="2787" dy="908" grid="1" gridSize="10" guides="1" tooltips="1" connect="1" arrows="1" fold="1" page="1" pageScale="1" pageWidth="1100" pageHeight="850" background="none" math="0" shadow="0">
      <root>
        <mxCell id="0" />
        <mxCell id="1" parent="0" />
        <mxCell id="qkbJ89IlTlsq3hkzwqtS-2" value="OKNO Z LOGOWANIEM" style="whiteSpace=wrap;html=1;aspect=fixed;align=center;" vertex="1" parent="1">
          <mxGeometry x="400" width="230" height="230" as="geometry" />
        </mxCell>
        <mxCell id="qkbJ89IlTlsq3hkzwqtS-5" value="&lt;div&gt;OKNO Z:&lt;/div&gt;&lt;div&gt;&lt;span style=&quot;color: rgb(82, 96, 105); font-family: Roboto, sans-serif; font-size: 14px; text-align: left; background-color: rgb(255, 255, 255);&quot;&gt;-pobieranie części z magazynu,&lt;/span&gt;&lt;/div&gt;&lt;div&gt;&lt;span style=&quot;color: rgb(82, 96, 105); font-family: Roboto, sans-serif; font-size: 14px; text-align: left; background-color: rgb(255, 255, 255);&quot;&gt;&amp;nbsp;-wykonanie usługi, podjęcie usługi,&amp;nbsp;&lt;/span&gt;&lt;/div&gt;&lt;div&gt;&lt;span style=&quot;color: rgb(82, 96, 105); font-family: Roboto, sans-serif; font-size: 14px; text-align: left; background-color: rgb(255, 255, 255);&quot;&gt;-odrzucenie usługi, reklamacja&lt;/span&gt;&lt;br&gt;&lt;/div&gt;" style="whiteSpace=wrap;html=1;aspect=fixed;align=center;" vertex="1" parent="1">
          <mxGeometry x="410" y="1070" width="190" height="190" as="geometry" />
        </mxCell>
        <mxCell id="qkbJ89IlTlsq3hkzwqtS-6" value="" style="endArrow=classic;html=1;rounded=0;" edge="1" parent="1">
          <mxGeometry width="50" height="50" relative="1" as="geometry">
            <mxPoint x="100" y="850" as="sourcePoint" />
            <mxPoint x="-80" y="1030" as="targetPoint" />
          </mxGeometry>
        </mxCell>
        <mxCell id="qkbJ89IlTlsq3hkzwqtS-8" value="" style="endArrow=classic;html=1;rounded=0;" edge="1" parent="1">
          <mxGeometry width="50" height="50" relative="1" as="geometry">
            <mxPoint x="510" y="850" as="sourcePoint" />
            <mxPoint x="510" y="1040" as="targetPoint" />
          </mxGeometry>
        </mxCell>
        <mxCell id="qkbJ89IlTlsq3hkzwqtS-10" value="&lt;div&gt;OKNO Z:&lt;/div&gt;&lt;div&gt;&lt;span style=&quot;color: rgb(82, 96, 105); font-family: Roboto, sans-serif; font-size: 14px; text-align: left; background-color: rgb(255, 255, 255);&quot;&gt;-wydawanie części,&lt;/span&gt;&lt;/div&gt;&lt;div&gt;&lt;span style=&quot;color: rgb(82, 96, 105); font-family: Roboto, sans-serif; font-size: 14px; text-align: left; background-color: rgb(255, 255, 255);&quot;&gt;&amp;nbsp;-przyjmowanie części na stan,&amp;nbsp;&lt;/span&gt;&lt;/div&gt;&lt;div&gt;&lt;span style=&quot;color: rgb(82, 96, 105); font-family: Roboto, sans-serif; font-size: 14px; text-align: left; background-color: rgb(255, 255, 255);&quot;&gt;-dodawanie nowych części&lt;/span&gt;&lt;br&gt;&lt;/div&gt;" style="whiteSpace=wrap;html=1;aspect=fixed;align=center;" vertex="1" parent="1">
          <mxGeometry x="-200" y="1070" width="190" height="190" as="geometry" />
        </mxCell>
        <mxCell id="qkbJ89IlTlsq3hkzwqtS-13" value="" style="endArrow=classic;html=1;rounded=0;" edge="1" parent="1">
          <mxGeometry width="50" height="50" relative="1" as="geometry">
            <mxPoint x="400" y="270" as="sourcePoint" />
            <mxPoint x="130" y="590" as="targetPoint" />
          </mxGeometry>
        </mxCell>
        <mxCell id="qkbJ89IlTlsq3hkzwqtS-14" value="" style="endArrow=classic;html=1;rounded=0;" edge="1" parent="1">
          <mxGeometry width="50" height="50" relative="1" as="geometry">
            <mxPoint x="520" y="280" as="sourcePoint" />
            <mxPoint x="520" y="600" as="targetPoint" />
          </mxGeometry>
        </mxCell>
        <mxCell id="qkbJ89IlTlsq3hkzwqtS-15" value="" style="endArrow=classic;html=1;rounded=0;" edge="1" parent="1">
          <mxGeometry width="50" height="50" relative="1" as="geometry">
            <mxPoint x="630" y="270" as="sourcePoint" />
            <mxPoint x="910" y="590" as="targetPoint" />
          </mxGeometry>
        </mxCell>
        <mxCell id="qkbJ89IlTlsq3hkzwqtS-16" value="MAGAZYNIER" style="whiteSpace=wrap;html=1;aspect=fixed;" vertex="1" parent="1">
          <mxGeometry x="30" y="640" width="150" height="150" as="geometry" />
        </mxCell>
        <mxCell id="qkbJ89IlTlsq3hkzwqtS-17" value="KLIENT" style="whiteSpace=wrap;html=1;aspect=fixed;" vertex="1" parent="1">
          <mxGeometry x="850" y="640" width="150" height="150" as="geometry" />
        </mxCell>
        <mxCell id="qkbJ89IlTlsq3hkzwqtS-18" value="SERWIS" style="whiteSpace=wrap;html=1;aspect=fixed;" vertex="1" parent="1">
          <mxGeometry x="440" y="640" width="150" height="150" as="geometry" />
        </mxCell>
        <mxCell id="qkbJ89IlTlsq3hkzwqtS-19" value="LOGOWANIE JAKO:" style="rounded=0;whiteSpace=wrap;html=1;" vertex="1" parent="1">
          <mxGeometry x="230" y="350" width="580" height="60" as="geometry" />
        </mxCell>
        <mxCell id="qkbJ89IlTlsq3hkzwqtS-24" value="" style="endArrow=classic;html=1;rounded=0;" edge="1" parent="1">
          <mxGeometry width="50" height="50" relative="1" as="geometry">
            <mxPoint x="920" y="850" as="sourcePoint" />
            <mxPoint x="1080" y="1030" as="targetPoint" />
          </mxGeometry>
        </mxCell>
        <mxCell id="qkbJ89IlTlsq3hkzwqtS-27" value="&lt;div&gt;OKNO Z:&lt;/div&gt;&lt;div&gt;&lt;span style=&quot;color: rgb(82, 96, 105); font-family: Roboto, sans-serif; font-size: 14px; text-align: left; background-color: rgb(255, 255, 255);&quot;&gt;&amp;nbsp;-umówienie wizyty,&lt;/span&gt;&lt;/div&gt;&lt;div&gt;&lt;span style=&quot;color: rgb(82, 96, 105); font-family: Roboto, sans-serif; font-size: 14px; text-align: left; background-color: rgb(255, 255, 255);&quot;&gt;&amp;nbsp;-status usługi,&amp;nbsp;&lt;/span&gt;&lt;/div&gt;&lt;div&gt;&lt;span style=&quot;color: rgb(82, 96, 105); font-family: Roboto, sans-serif; font-size: 14px; text-align: left; background-color: rgb(255, 255, 255);&quot;&gt;-koszt,&amp;nbsp;&lt;/span&gt;&lt;/div&gt;&lt;div&gt;&lt;span style=&quot;color: rgb(82, 96, 105); font-family: Roboto, sans-serif; font-size: 14px; text-align: left; background-color: rgb(255, 255, 255);&quot;&gt;-pobranie FV,&amp;nbsp;&lt;/span&gt;&lt;/div&gt;&lt;div&gt;&lt;span style=&quot;color: rgb(82, 96, 105); font-family: Roboto, sans-serif; font-size: 14px; text-align: left; background-color: rgb(255, 255, 255);&quot;&gt;-złożenie reklamacji do istniejącego zlecenia usługi&lt;/span&gt;&lt;br&gt;&lt;/div&gt;" style="whiteSpace=wrap;html=1;aspect=fixed;align=center;" vertex="1" parent="1">
          <mxGeometry x="1030" y="1070" width="190" height="190" as="geometry" />
        </mxCell>
        <mxCell id="qkbJ89IlTlsq3hkzwqtS-28" value="ADMIN" style="whiteSpace=wrap;html=1;aspect=fixed;" vertex="1" parent="1">
          <mxGeometry x="-310" y="350" width="150" height="150" as="geometry" />
        </mxCell>
        <mxCell id="qkbJ89IlTlsq3hkzwqtS-29" value="" style="endArrow=classic;html=1;rounded=0;" edge="1" parent="1">
          <mxGeometry width="50" height="50" relative="1" as="geometry">
            <mxPoint x="470" y="270" as="sourcePoint" />
            <mxPoint x="-130" y="400" as="targetPoint" />
            <Array as="points">
              <mxPoint x="410" y="540" />
            </Array>
          </mxGeometry>
        </mxCell>
        <mxCell id="qkbJ89IlTlsq3hkzwqtS-30" value="" style="endArrow=classic;html=1;rounded=0;" edge="1" parent="1">
          <mxGeometry width="50" height="50" relative="1" as="geometry">
            <mxPoint x="-240" y="520" as="sourcePoint" />
            <mxPoint x="-600" y="1000" as="targetPoint" />
          </mxGeometry>
        </mxCell>
        <mxCell id="qkbJ89IlTlsq3hkzwqtS-31" value="&lt;div&gt;OKNO Z:&lt;/div&gt;&lt;ul style=&quot;box-sizing: border-box; margin-top: 0px; margin-bottom: 0px; list-style-position: initial; list-style-image: initial; padding-inline-start: 20px; color: rgb(82, 96, 105); font-family: Roboto, sans-serif; font-size: 14px; text-align: left; background-color: rgb(255, 255, 255);&quot; id=&quot;yui_3_17_2_1_1715628980597_186&quot;&gt;&lt;li style=&quot;box-sizing: border-box;&quot;&gt;- proces realizacji zlecenia serwisowego(obieg dokumentów) - zlecenie --&amp;gt; serwis --&amp;gt; magazyn --&amp;gt; serwis --&amp;gt; usługa&lt;/li&gt;&lt;li style=&quot;box-sizing: border-box;&quot;&gt;-&amp;nbsp; dokumenty operacyjne na stanie magazynu (WZ, WW, ZL, ZM, FV)&lt;/li&gt;&lt;li style=&quot;box-sizing: border-box;&quot;&gt;- obliczanie kosztów&lt;/li&gt;&lt;li style=&quot;box-sizing: border-box;&quot;&gt;- panel zarządzania użytkownikami&lt;/li&gt;&lt;li style=&quot;box-sizing: border-box;&quot;&gt;- panel zarządzania marżą dla każdej kategorii towaru i usługi&lt;/li&gt;&lt;/ul&gt;&lt;div&gt;&lt;span style=&quot;color: rgb(82, 96, 105); font-family: Roboto, sans-serif; font-size: 14px; text-align: left; background-color: rgb(255, 255, 255);&quot;&gt;-wydawanie części,&lt;/span&gt;&lt;/div&gt;&lt;div&gt;&lt;span style=&quot;color: rgb(82, 96, 105); font-family: Roboto, sans-serif; font-size: 14px; text-align: left; background-color: rgb(255, 255, 255);&quot;&gt;&amp;nbsp;-przyjmowanie części na stan,&amp;nbsp;&lt;/span&gt;&lt;/div&gt;&lt;div&gt;&lt;span style=&quot;color: rgb(82, 96, 105); font-family: Roboto, sans-serif; font-size: 14px; text-align: left; background-color: rgb(255, 255, 255);&quot;&gt;-dodawanie nowych części&lt;/span&gt;&lt;br&gt;&lt;/div&gt;" style="whiteSpace=wrap;html=1;aspect=fixed;align=center;" vertex="1" parent="1">
          <mxGeometry x="-700" y="1070" width="290" height="290" as="geometry" />
        </mxCell>
      </root>
    </mxGraphModel>
  </diagram>
</mxfile>
